<svg xmlns="http://www.w3.org/2000/svg" width="64" height="64" viewBox="0 0 64 64">
  <defs>
    <linearGradient id="hubGradient" x1="0%" y1="0%" x2="100%" y2="100%">
      <stop offset="0%" style="stop-color:#3b82f6;stop-opacity:1" />
      <stop offset="100%" style="stop-color:#1d4ed8;stop-opacity:1" />
    </linearGradient>
    <linearGradient id="waveGradient" x1="0%" y1="0%" x2="100%" y2="0%">
      <stop offset="0%" style="stop-color:#10b981;stop-opacity:1" />
      <stop offset="50%" style="stop-color:#3b82f6;stop-opacity:1" />
      <stop offset="100%" style="stop-color:#8b5cf6;stop-opacity:1" />
    </linearGradient>
  </defs>

  <!-- Background Circle -->
  <circle cx="32" cy="32" r="30" fill="url(#hubGradient)" stroke="#1e40af" stroke-width="2"/>

  <!-- Waveform Pattern -->
  <g fill="url(#waveGradient)">
    <rect x="12" y="25" width="2" height="14" rx="1"/>
    <rect x="16" y="20" width="2" height="24" rx="1"/>
    <rect x="20" y="28" width="2" height="8" rx="1"/>
    <rect x="24" y="18" width="2" height="28" rx="1"/>
    <rect x="28" y="22" width="2" height="20" rx="1"/>
    <rect x="32" y="15" width="2" height="34" rx="1"/>
    <rect x="36" y="26" width="2" height="12" rx="1"/>
    <rect x="40" y="19" width="2" height="26" rx="1"/>
    <rect x="44" y="24" width="2" height="16" rx="1"/>
    <rect x="48" y="21" width="2" height="22" rx="1"/>
    <rect x="52" y="27" width="2" height="10" rx="1"/>
  </g>

  <!-- Playhead/Cursor -->
  <line x1="32" y1="12" x2="32" y2="52" stroke="#fbbf24" stroke-width="2" opacity="0.8"/>
  <circle cx="32" cy="12" r="2" fill="#fbbf24"/>

  <!-- Hub Connection Points -->
  <circle cx="20" cy="18" r="1.5" fill="#ffffff" opacity="0.6"/>
  <circle cx="32" cy="15" r="1.5" fill="#ffffff" opacity="0.6"/>
  <circle cx="44" cy="19" r="1.5" fill="#ffffff" opacity="0.6"/>
  <line x1="20" y1="18" x2="32" y2="15" stroke="#ffffff" stroke-width="1" opacity="0.3"/>
  <line x1="32" y1="15" x2="44" y2="19" stroke="#ffffff" stroke-width="1" opacity="0.3"/>
</svg>

